<svg aria-hidden="true" style="position:absolute;width:0;height:0" xmlns="http://www.w3.org/2000/svg" overflow="hidden"><defs><symbol id="menu" viewBox="0 0 48 32"><path fill="var(--color1, #736296)" d="M0 32h48v-5.333H0V32zm0-13.333h48v-5.333H0v5.333zM0 0v5.333h48V0H0z"/></symbol><symbol id="loupe" viewBox="0 0 32 32"><path fill="var(--color2, #007cef)" d="M22.87 20.126h-1.445l-.512-.494c1.793-2.086 2.873-4.794 2.873-7.739C23.786 5.325 18.462 0 11.893 0S0 5.324 0 11.893c0 6.568 5.324 11.893 11.893 11.893 2.946 0 5.654-1.079 7.739-2.873l.494.512v1.445L29.274 32 32 29.274l-9.13-9.148zm-10.977 0c-4.556 0-8.233-3.678-8.233-8.233S7.338 3.66 11.893 3.66c4.556 0 8.233 3.678 8.233 8.233s-3.678 8.233-8.233 8.233z"/></symbol><symbol id="comments-icon" viewBox="0 0 32 32"><path fill="var(--color2, #007cef)" d="M28.8 0H3.2C1.44 0 .016 1.44.016 3.2L0 32l6.4-6.4h22.4c1.76 0 3.2-1.44 3.2-3.2V3.2C32 1.44 30.56 0 28.8 0zM6.4 11.2h19.2v3.2H6.4v-3.2zm12.8 8H6.4V16h12.8v3.2zm6.4-9.6H6.4V6.4h19.2v3.2z"/></symbol><symbol id="comments-icon-null" viewBox="0 0 32 32"><path fill="none" stroke="var(--color2, #007cef)" stroke-width="1.6" d="M6.4 24.8h-.331L.801 30.068.816 3.201v0c0-1.323 1.071-2.4 2.384-2.4h25.6c1.318 0 2.4 1.082 2.4 2.4v19.2c0 1.318-1.082 2.4-2.4 2.4H6.4z"/></symbol><symbol id="like-icon" viewBox="0 0 35 32"><path fill="var(--color3, #fff)" stroke="var(--color2, #007cef)" stroke-width="1.6" d="M21.121 11.037l-.2.963H32c1.318 0 2.4 1.082 2.4 2.4v3.2c0 .305-.057.587-.165.865l-4.83 11.275c-.359.86-1.208 1.46-2.206 1.46h-14.4c-1.318 0-2.4-1.082-2.4-2.4v-16c0-.662.263-1.256.702-1.683h0l9.973-9.988 1.127 1.117.001.001c.28.281.459.674.468 1.095l-.04.426-1.511 7.268zM5.6 13.6v17.6H.8V13.6h4.8z"/></symbol><symbol id=" " viewBox="0 0 32 32"><path fill="var(--color2, #007cef)" opacity=".6" d="M23.344 8.928L12.8 19.472l-5.744-5.728L4.8 16l8 8 12.8-12.8-2.256-2.272zM16 0C7.168 0 0 7.168 0 16s7.168 16 16 16 16-7.168 16-16S24.832 0 16 0zm0 28.8C8.928 28.8 3.2 23.072 3.2 16S8.928 3.2 16 3.2c7.072 0 12.8 5.728 12.8 12.8S23.072 28.8 16 28.8z"/></symbol><symbol id="invalid" viewBox="0 0 32 32"><path fill="var(--color4, #e8194b)" opacity=".6" d="M22.631 0H9.369L0 9.369v13.262L9.369 32h13.262L32 22.631V9.369L22.631 0zM16 25.422c-1.28 0-2.311-1.031-2.311-2.311S14.72 20.8 16 20.8s2.311 1.031 2.311 2.311S17.28 25.422 16 25.422zm1.778-7.644h-3.556V7.111h3.556v10.667z"/></symbol></defs></svg>